<?xml version="1.0" encoding="UTF-8" standalone="no"?>
<!DOCTYPE svg PUBLIC "-//W3C//DTD SVG 1.1//EN"
 "http://www.w3.org/Graphics/SVG/1.1/DTD/svg11.dtd">
<!-- Generated by graphviz version 2.43.0 (0)
 -->
<!-- Title: %3 Pages: 1 -->
<svg width="692pt" height="980pt"
 viewBox="0.00 0.00 692.00 980.00" xmlns="http://www.w3.org/2000/svg" xmlns:xlink="http://www.w3.org/1999/xlink">
<g id="graph0" class="graph" transform="scale(1 1) rotate(0) translate(4 976)">
<title>%3</title>
<polygon fill="white" stroke="transparent" points="-4,4 -4,-976 688,-976 688,4 -4,4"/>
<!-- input -->
<g id="node1" class="node">
<title>input</title>
<g id="a_node1"><a xlink:title="input">
<polygon fill="gray" stroke="red" stroke-width="3" points="400.5,-972 283.5,-972 283.5,-919 400.5,-919 400.5,-972"/>
<text text-anchor="middle" x="342" y="-956.8" font-family="Helvetica,sans-Serif" font-size="14.00">input</text>
<text text-anchor="middle" x="342" y="-941.8" font-family="Helvetica,sans-Serif" font-size="14.00">[32, 3, 32, 32]</text>
<text text-anchor="middle" x="342" y="-926.8" font-family="Helvetica,sans-Serif" font-size="14.00">FP32 NCHW</text>
</a>
</g>
</g>
<!-- Reformatting CopyNode for Input Tensor 0 to {ForeignNode[/cnn/cnn.0/Conv.../cnn/cnn.11/Relu]} -->
<g id="node3" class="node">
<title>Reformatting CopyNode for Input Tensor 0 to {ForeignNode[/cnn/cnn.0/Conv.../cnn/cnn.11/Relu]}</title>
<g id="a_node3"><a xlink:title="LayerType:Reformat&#10;Name:Reformatting CopyNode for Input Tensor 0 to {ForeignNode[/cnn/cnn.0/Conv.../cnn/cnn.11/Relu]}&#10;Origin:REFORMAT&#10;TacticValue:0x0000000000000000&#10;">
<path fill="#00ffff" stroke="lightgray" d="M12,-744.5C12,-744.5 672,-744.5 672,-744.5 678,-744.5 684,-750.5 684,-756.5 684,-756.5 684,-840.5 684,-840.5 684,-846.5 678,-852.5 672,-852.5 672,-852.5 12,-852.5 12,-852.5 6,-852.5 0,-846.5 0,-840.5 0,-840.5 0,-756.5 0,-756.5 0,-750.5 6,-744.5 12,-744.5"/>
<polygon fill="none" stroke="transparent" points="8,-823.5 8,-848.5 676,-848.5 676,-823.5 8,-823.5"/>
<text text-anchor="start" x="305" y="-833.3" font-family="Helvetica,sans-Serif" font-weight="bold" font-size="14.00">Reformat</text>
<polygon fill="none" stroke="transparent" points="8,-798.5 8,-823.5 676,-823.5 676,-798.5 8,-798.5"/>
<text text-anchor="start" x="290.5" y="-807.3" font-family="Helvetica,sans-Serif" font-size="14.00">0.0178753 ms</text>
<polygon fill="none" stroke="transparent" points="8,-773.5 8,-798.5 676,-798.5 676,-773.5 8,-773.5"/>
<text text-anchor="start" x="13" y="-782.3" font-family="Helvetica,sans-Serif" font-size="14.00">Reformatting CopyNode for Input Tensor 0 to ForeignNode[/cnn/cnn.0/Conv.../cnn/cnn.11/Relu]</text>
<polygon fill="none" stroke="transparent" points="8,-748.5 8,-773.5 676,-773.5 676,-748.5 8,-748.5"/>
<text text-anchor="start" x="303.5" y="-757.3" font-family="Helvetica,sans-Serif" font-size="14.00">REFORMAT</text>
</a>
</g>
</g>
<!-- input&#45;&gt;Reformatting CopyNode for Input Tensor 0 to {ForeignNode[/cnn/cnn.0/Conv.../cnn/cnn.11/Relu]} -->
<g id="edge1" class="edge">
<title>input&#45;&gt;Reformatting CopyNode for Input Tensor 0 to {ForeignNode[/cnn/cnn.0/Conv.../cnn/cnn.11/Relu]}</title>
<path fill="none" stroke="red" d="M342,-918.91C342,-903.33 342,-882.69 342,-862.96"/>
<polygon fill="red" stroke="red" points="345.5,-862.75 342,-852.75 338.5,-862.75 345.5,-862.75"/>
<text text-anchor="middle" x="392.5" y="-889.8" font-family="Times,serif" font-size="14.00">[32, 3, 32, 32]</text>
<text text-anchor="middle" x="392.5" y="-874.8" font-family="Times,serif" font-size="14.00">FP32 NCHW</text>
</g>
<!-- output -->
<g id="node2" class="node">
<title>output</title>
<g id="a_node2"><a xlink:title="output">
<polygon fill="gray" stroke="red" stroke-width="3" points="392,-53 292,-53 292,0 392,0 392,-53"/>
<text text-anchor="middle" x="342" y="-37.8" font-family="Helvetica,sans-Serif" font-size="14.00">output</text>
<text text-anchor="middle" x="342" y="-22.8" font-family="Helvetica,sans-Serif" font-size="14.00">[32, 10]</text>
<text text-anchor="middle" x="342" y="-7.8" font-family="Helvetica,sans-Serif" font-size="14.00">FP32 NCHW</text>
</a>
</g>
</g>
<!-- {ForeignNode[/cnn/cnn.0/Conv.../cnn/cnn.11/Relu]} -->
<g id="node4" class="node">
<title>{ForeignNode[/cnn/cnn.0/Conv.../cnn/cnn.11/Relu]}</title>
<g id="a_node4"><a xlink:title="LayerType:DLA&#10;Name:{ForeignNode[/cnn/cnn.0/Conv.../cnn/cnn.11/Relu]}&#10;TacticValue:0x0000000000000003&#10;">
<path fill="gray" stroke="lightgray" d="M170.5,-594.5C170.5,-594.5 513.5,-594.5 513.5,-594.5 519.5,-594.5 525.5,-600.5 525.5,-606.5 525.5,-606.5 525.5,-665.5 525.5,-665.5 525.5,-671.5 519.5,-677.5 513.5,-677.5 513.5,-677.5 170.5,-677.5 170.5,-677.5 164.5,-677.5 158.5,-671.5 158.5,-665.5 158.5,-665.5 158.5,-606.5 158.5,-606.5 158.5,-600.5 164.5,-594.5 170.5,-594.5"/>
<polygon fill="none" stroke="transparent" points="167,-648 167,-673 518,-673 518,-648 167,-648"/>
<text text-anchor="start" x="327" y="-657.8" font-family="Helvetica,sans-Serif" font-weight="bold" font-size="14.00">DLA</text>
<polygon fill="none" stroke="transparent" points="167,-623 167,-648 518,-648 518,-623 167,-623"/>
<text text-anchor="start" x="295.5" y="-631.8" font-family="Helvetica,sans-Serif" font-size="14.00">0.683984 ms</text>
<polygon fill="none" stroke="transparent" points="167,-598 167,-623 518,-623 518,-598 167,-598"/>
<text text-anchor="start" x="172" y="-606.8" font-family="Helvetica,sans-Serif" font-size="14.00">ForeignNode[/cnn/cnn.0/Conv.../cnn/cnn.11/Relu]</text>
</a>
</g>
</g>
<!-- Reformatting CopyNode for Input Tensor 0 to {ForeignNode[/cnn/cnn.0/Conv.../cnn/cnn.11/Relu]}&#45;&gt;{ForeignNode[/cnn/cnn.0/Conv.../cnn/cnn.11/Relu]} -->
<g id="edge2" class="edge">
<title>Reformatting CopyNode for Input Tensor 0 to {ForeignNode[/cnn/cnn.0/Conv.../cnn/cnn.11/Relu]}&#45;&gt;{ForeignNode[/cnn/cnn.0/Conv.../cnn/cnn.11/Relu]}</title>
<path fill="none" stroke="#76b900" d="M342,-744.06C342,-725.83 342,-705.52 342,-687.53"/>
<polygon fill="#76b900" stroke="#76b900" points="345.5,-687.52 342,-677.52 338.5,-687.52 345.5,-687.52"/>
<text text-anchor="middle" x="392.5" y="-714.8" font-family="Times,serif" font-size="14.00">[32, 3, 32, 32]</text>
<text text-anchor="middle" x="392.5" y="-699.8" font-family="Times,serif" font-size="14.00">Int8 NCHW</text>
</g>
<!-- /pool/GlobalAveragePool -->
<g id="node5" class="node">
<title>/pool/GlobalAveragePool</title>
<g id="a_node5"><a xlink:title="AverageCountExcludesPadding:1&#10;BlendFactor:0&#10;LayerType:CaskPooling&#10;Name:/pool/GlobalAveragePool&#10;PaddingMode:kEXPLICIT_ROUND_DOWN&#10;PoolingType:AVERAGE&#10;PostPadding:[0, 0]&#10;PrePadding:[0, 0]&#10;Stride:[1, 1]&#10;TacticName:sm72_xmma_pooling_IMMA_NCxHW32_generic_kAVERAGE&#10;TacticValue:0xd9375d43b61ffbcb&#10;WindowSize:[2, 2]&#10;">
<path fill="#3cb371" stroke="lightgray" d="M257,-444.5C257,-444.5 427,-444.5 427,-444.5 433,-444.5 439,-450.5 439,-456.5 439,-456.5 439,-515.5 439,-515.5 439,-521.5 433,-527.5 427,-527.5 427,-527.5 257,-527.5 257,-527.5 251,-527.5 245,-521.5 245,-515.5 245,-515.5 245,-456.5 245,-456.5 245,-450.5 251,-444.5 257,-444.5"/>
<polygon fill="none" stroke="transparent" points="253,-498 253,-523 431,-523 431,-498 253,-498"/>
<text text-anchor="start" x="312.5" y="-507.8" font-family="Helvetica,sans-Serif" font-weight="bold" font-size="14.00">Pooling</text>
<polygon fill="none" stroke="transparent" points="253,-473 253,-498 431,-498 431,-473 253,-473"/>
<text text-anchor="start" x="286" y="-481.8" font-family="Helvetica,sans-Serif" font-size="14.00">0.00932854 ms</text>
<polygon fill="none" stroke="transparent" points="253,-448 253,-473 431,-473 431,-448 253,-448"/>
<text text-anchor="start" x="258" y="-456.8" font-family="Helvetica,sans-Serif" font-size="14.00">/pool/GlobalAveragePool</text>
</a>
</g>
</g>
<!-- {ForeignNode[/cnn/cnn.0/Conv.../cnn/cnn.11/Relu]}&#45;&gt;/pool/GlobalAveragePool -->
<g id="edge3" class="edge">
<title>{ForeignNode[/cnn/cnn.0/Conv.../cnn/cnn.11/Relu]}&#45;&gt;/pool/GlobalAveragePool</title>
<path fill="none" stroke="#76b900" d="M342,-594.17C342,-576.78 342,-556.31 342,-537.94"/>
<polygon fill="#76b900" stroke="#76b900" points="345.5,-537.7 342,-527.7 338.5,-537.7 345.5,-537.7"/>
<text text-anchor="middle" x="404" y="-564.8" font-family="Times,serif" font-size="14.00">[32, 512, 2, 2]</text>
<text text-anchor="middle" x="404" y="-549.8" font-family="Times,serif" font-size="14.00">Int8 NC/32HW32</text>
</g>
<!-- {ForeignNode[/linear/Gemm]} -->
<g id="node6" class="node">
<title>{ForeignNode[/linear/Gemm]}</title>
<g id="a_node6"><a xlink:title="LayerType:DLA&#10;Name:{ForeignNode[/linear/Gemm]}&#10;TacticValue:0x0000000000000003&#10;">
<path fill="gray" stroke="lightgray" d="M245,-294.5C245,-294.5 439,-294.5 439,-294.5 445,-294.5 451,-300.5 451,-306.5 451,-306.5 451,-365.5 451,-365.5 451,-371.5 445,-377.5 439,-377.5 439,-377.5 245,-377.5 245,-377.5 239,-377.5 233,-371.5 233,-365.5 233,-365.5 233,-306.5 233,-306.5 233,-300.5 239,-294.5 245,-294.5"/>
<polygon fill="none" stroke="transparent" points="241,-348 241,-373 443,-373 443,-348 241,-348"/>
<text text-anchor="start" x="326.5" y="-357.8" font-family="Helvetica,sans-Serif" font-weight="bold" font-size="14.00">DLA</text>
<polygon fill="none" stroke="transparent" points="241,-323 241,-348 443,-348 443,-323 241,-323"/>
<text text-anchor="start" x="295" y="-331.8" font-family="Helvetica,sans-Serif" font-size="14.00">0.114254 ms</text>
<polygon fill="none" stroke="transparent" points="241,-298 241,-323 443,-323 443,-298 241,-298"/>
<text text-anchor="start" x="246" y="-306.8" font-family="Helvetica,sans-Serif" font-size="14.00">ForeignNode[/linear/Gemm]</text>
</a>
</g>
</g>
<!-- /pool/GlobalAveragePool&#45;&gt;{ForeignNode[/linear/Gemm]} -->
<g id="edge4" class="edge">
<title>/pool/GlobalAveragePool&#45;&gt;{ForeignNode[/linear/Gemm]}</title>
<path fill="none" stroke="#76b900" d="M342,-444.17C342,-426.78 342,-406.31 342,-387.94"/>
<polygon fill="#76b900" stroke="#76b900" points="345.5,-387.7 342,-377.7 338.5,-387.7 345.5,-387.7"/>
<text text-anchor="middle" x="404" y="-414.8" font-family="Times,serif" font-size="14.00">[32, 512, 1, 1]</text>
<text text-anchor="middle" x="404" y="-399.8" font-family="Times,serif" font-size="14.00">Int8 NC/32HW32</text>
</g>
<!-- Reformatting CopyNode for Input Tensor 0 to reshape_after_/linear/Gemm -->
<g id="node7" class="node">
<title>Reformatting CopyNode for Input Tensor 0 to reshape_after_/linear/Gemm</title>
<g id="a_node7"><a xlink:title="LayerType:Reformat&#10;Name:Reformatting CopyNode for Input Tensor 0 to reshape_after_/linear/Gemm&#10;Origin:REFORMAT&#10;TacticValue:0x00000000000003e8&#10;">
<path fill="#00ffff" stroke="lightgray" d="M85,-119.5C85,-119.5 599,-119.5 599,-119.5 605,-119.5 611,-125.5 611,-131.5 611,-131.5 611,-215.5 611,-215.5 611,-221.5 605,-227.5 599,-227.5 599,-227.5 85,-227.5 85,-227.5 79,-227.5 73,-221.5 73,-215.5 73,-215.5 73,-131.5 73,-131.5 73,-125.5 79,-119.5 85,-119.5"/>
<polygon fill="none" stroke="transparent" points="81,-198.5 81,-223.5 603,-223.5 603,-198.5 81,-198.5"/>
<text text-anchor="start" x="305" y="-208.3" font-family="Helvetica,sans-Serif" font-weight="bold" font-size="14.00">Reformat</text>
<polygon fill="none" stroke="transparent" points="81,-173.5 81,-198.5 603,-198.5 603,-173.5 81,-173.5"/>
<text text-anchor="start" x="286" y="-182.3" font-family="Helvetica,sans-Serif" font-size="14.00">0.00787547 ms</text>
<polygon fill="none" stroke="transparent" points="81,-148.5 81,-173.5 603,-173.5 603,-148.5 81,-148.5"/>
<text text-anchor="start" x="86" y="-157.3" font-family="Helvetica,sans-Serif" font-size="14.00">Reformatting CopyNode for Input Tensor 0 to reshape_after_/linear/Gemm</text>
<polygon fill="none" stroke="transparent" points="81,-123.5 81,-148.5 603,-148.5 603,-123.5 81,-123.5"/>
<text text-anchor="start" x="303.5" y="-132.3" font-family="Helvetica,sans-Serif" font-size="14.00">REFORMAT</text>
</a>
</g>
</g>
<!-- {ForeignNode[/linear/Gemm]}&#45;&gt;Reformatting CopyNode for Input Tensor 0 to reshape_after_/linear/Gemm -->
<g id="edge5" class="edge">
<title>{ForeignNode[/linear/Gemm]}&#45;&gt;Reformatting CopyNode for Input Tensor 0 to reshape_after_/linear/Gemm</title>
<path fill="none" stroke="#76b900" d="M342,-294.5C342,-277.34 342,-256.93 342,-237.86"/>
<polygon fill="#76b900" stroke="#76b900" points="345.5,-237.74 342,-227.74 338.5,-237.74 345.5,-237.74"/>
<text text-anchor="middle" x="404" y="-264.8" font-family="Times,serif" font-size="14.00">[32, 10, 1, 1]</text>
<text text-anchor="middle" x="404" y="-249.8" font-family="Times,serif" font-size="14.00">Int8 NC/32HW32</text>
</g>
<!-- Reformatting CopyNode for Input Tensor 0 to reshape_after_/linear/Gemm&#45;&gt;output -->
<g id="edge6" class="edge">
<title>Reformatting CopyNode for Input Tensor 0 to reshape_after_/linear/Gemm&#45;&gt;output</title>
<path fill="none" stroke="red" d="M342,-119.33C342,-100.59 342,-79.99 342,-63.06"/>
<polygon fill="red" stroke="red" points="345.5,-63.04 342,-53.04 338.5,-63.04 345.5,-63.04"/>
<text text-anchor="middle" x="387.5" y="-89.8" font-family="Times,serif" font-size="14.00">[32, 10]</text>
<text text-anchor="middle" x="387.5" y="-74.8" font-family="Times,serif" font-size="14.00">FP32 NCHW</text>
</g>
</g>
</svg>
